<?xml version="1.0" encoding="UTF-8"?><svg id="_14d05119-285d-4608-87a5-e3450bf49ec1" data-name=" 14d05119-285d-4608-87a5-e3450bf49ec1" xmlns="http://www.w3.org/2000/svg" width="5.47in" height="2.94in" viewBox="0 0 393.7 211.6"><defs><style>.cls-1{fill:#fff;}</style></defs><title>Artboard 1</title><path class="cls-1" d="M214.4,83.8c-.6.9-.2,1.7.9,1.7l6.3.1a2.8,2.8,0,0,0,2.6-1.9l7.5-23.6c.3-1.1.1-1.2-.5-.3Z"/><path class="cls-1" d="M124.1,85.2c-.8.8-.5,1.4.6,1.4l12.9-.5a4.37,4.37,0,0,0,3.1-1.8l22.5-38.4c.6-1,.4-1.1-.4-.3Z"/><path class="cls-1" d="M159.1,23.3a2.71,2.71,0,0,1,3.2-.3l7.6,4.9a2.71,2.71,0,0,0,3.2-.3l21-19c.8-.7,1.1-.6.5.4l-41,74.9c-.5,1-.1,1.8,1.1,1.7,0,0,21.7-.4,34.1-.4h1.6a5.36,5.36,0,0,0,3.4-1.5L243.4,31c.8-.8,1.2-.6,1,.5L232.8,83.8a1.51,1.51,0,0,0,.89,1.94l.21.06c.2,0,.3.1.5.1l87.7,6.3c1.1.1,1.4-.4.5-1.2L249.7,21.7a2.28,2.28,0,0,0-3-.1l-6.9,5.8a2.88,2.88,0,0,1-3.2.2L196.6.2a3,3,0,0,0-3.3.1l-21.4,17a3,3,0,0,1-3.3.2L164,14.6a3,3,0,0,0-3.3.2L71.1,89.2c-.9.7-.7,1.2.4,1.1L85.3,89a7.27,7.27,0,0,0,3.5-1.5Z"/><path class="cls-1" d="M108.8,180.2c-8.7,6.1-20.6,9.6-33.6,9.6a56.65,56.65,0,0,1-12.3-1.6c-.4-5.9-.8-25.2-.8-30.3v-4.3c0-4.5.4-25.8.7-31.3,2.5-.3,5-.4,7.5-.5,19.3,0,32.7,2.8,41.2,8.6,9.8,6.7,11.1,15.9,11.1,24,.1,10.4-4.8,19.3-13.8,25.8m-55-65.4c-3.6,0-14-.2-15.9-.4l-.1,3.2c3,.2,5.2,1.5,8.5,2.1.4,4.8.6,21.6.6,28.4v8.8c0,17.2-.3,33-.8,34.5l-.8,3.3-.4,1.6-.4,1.6,1.6-.1,1.6-.1h.7l21.1-.1c50.8,0,68.8-26.6,68.8-49.4,0-12.2-7.9-22.6-21.6-28.5-7.6-3.2-21-5.2-36-5.2-4.6,0-11.2.2-17.1.2-4.3,0-8,.1-9.8.1"/><path class="cls-1" d="M377.6,158.2A35.25,35.25,0,0,0,367,133a39.48,39.48,0,0,0-28.1-11.4c-16.2,0-35.1,8.1-35.1,31.1,0,9,4,18.2,11,25.2A41.32,41.32,0,0,0,344.1,190c10.6,0,19-3,24.8-8.8,5.7-5.5,8.8-13.7,8.7-23m-76,27.9c-8.6-8.2-12.3-16.8-12.3-28.6,0-10.6,4.5-20.9,12.5-29,10-10,24.2-15.6,40-15.6,11.2,0,23.4,1.1,35.6,9.4,10.1,6.7,16.3,18,16.3,29.5,0,27.3-22.6,47.1-53.8,47.1-16.7,0-29.3-4.2-38.3-12.8"/><path class="cls-1" d="M26.4,119c4.4-.4,6-1.2,8.5-1.4l.1-3.2c-2.1.2-11.3.5-17.6.5-5,0-15.1-.2-17.5-.5l.7,3.2a74,74,0,0,1,7.8,1.5c.4,6,.5,25.6.5,29.8v18.5c0,11-1.6,37.9-2.1,42.4L6.7,211l19.8-5.9.4-.4-.1-.7-.1-.6c-.2-1.2-.6-11.1-.6-35.3V149.3c0-17.9.2-27.8.3-30.3"/><path class="cls-1" d="M283.7,119.1c3.6-.4,5.3-1.5,7.7-1.7l.8-3c-2.2.2-9.7.4-15.9.4-4.8,0-15.4-.2-17.5-.4l.6,3c3.6.2,5,1.1,7.1,1.6.4,4.6.6,20.2.6,27.2v4.5c-10.9-.1-41.6,0-50.7,0v-4.5c0-8.4.3-22.6.7-27.2,2-.5,3.5-1.3,7-1.6l.6-3c-2,.2-9.6.4-15.7.4-4.7,0-13.5-.2-15.6-.4l.6,3a42.57,42.57,0,0,1,7.9,1.6h0c.4,5.9.5,25.4.5,29.7V167c.1,11.8.3,26.8-.1,31.2v.4l15.1-4.5v-.4l-.1-.6c-.5-4.1-.9-20.2-.9-31.3l-.1-5.2c4,0,44.3-1.7,50.8-1.6v6.9c0,11.7,0,26.2-.7,29.8l-.3,1.4-.3,1.4h19l-.3-1.4-.3-1.4c-.7-3.2-1-19.9-1-35v-7.8c0-5.1.1-24.3.5-29.5"/><path class="cls-1" d="M150.3,150.8c2.9-8,7.2-19,9-22.6l8.4,22.6Zm37,52.1,15.2-4.6-.9-1.5c0-.1-2.9-5.5-6.3-13.6-1.4-3.5-4-10.3-6.5-16.9-3-7.9-5.9-15.4-6.6-16.8-.9-1.9-17.9-47.4-18.1-47.8l-.1-.7-.3.7c-.4,1-2.4,6.2-5.4,14-10.7,27.8-32.5,84.4-38.2,96l12.1-6c2.3-9.5,10.1-31.6,13.4-41.2.9-2.6,1.6-4.4,1.7-4.9a7.19,7.19,0,0,1,.4-1c.2-.4.7-2.2.9-2.8l20.7-1.1c.9,2.1,9.4,23.6,7.5,18.4Z"/></svg>