<?xml version="1.0" encoding="UTF-8"?>
<svg width="266px" height="44px" viewBox="0 0 266 44" version="1.1" xmlns="http://www.w3.org/2000/svg" xmlns:xlink="http://www.w3.org/1999/xlink">
    <title>Group 67</title>
    <defs>
        <polygon id="path-1" points="0.783207143 0.294907143 11.3674286 0.294907143 11.3674286 13.8324071 0.783207143 13.8324071"></polygon>
        <polygon id="path-3" points="0 0.416914286 64.9860063 0.416914286 64.9860063 42.0712526 0 42.0712526"></polygon>
        <polygon id="path-5" points="0 42.0714286 265.153143 42.0714286 265.153143 0.416642857 0 0.416642857"></polygon>
    </defs>
    <g id="Components" stroke="none" stroke-width="1" fill="none" fill-rule="evenodd">
        <g id="Iconography" transform="translate(-47.000000, -691.000000)">
            <g id="Group-67" transform="translate(47.000000, 691.000000)">
                <polygon id="Fill-1" fill="#001489" points="75.1925 20.6227357 264.127143 20.6227357 264.127143 20.1260214 75.1925 20.1260214"></polygon>
                <g id="Group-66" transform="translate(0.000000, 0.940093)">
                    <path d="M85.0984214,27.987 L85.0984214,25.0297857 C85.0984214,22.7565714 84.93285,22.6154286 83.2676357,22.4865 L83.2676357,22.0087857 L88.7640643,22.0087857 L88.7640643,22.4865 C87.0160643,22.6154286 86.8491357,22.7565714 86.8491357,25.0297857 L86.8491357,32.5252857 C86.8491357,34.7971429 87.0160643,34.9423571 88.7219929,35.0672143 L88.7219929,35.5449286 L83.09935,35.5449286 L83.09935,35.0672143 C84.93285,34.9423571 85.0984214,34.7971429 85.0984214,32.5252857 L85.0984214,28.8175714 L77.8729929,28.8175714 L77.8729929,32.5252857 C77.8729929,34.7971429 78.0385643,34.9423571 79.7485643,35.0672143 L79.7485643,35.5449286 L74.2467071,35.5449286 L74.2467071,35.0672143 C75.9567071,34.9423571 76.1222786,34.7971429 76.1222786,32.5252857 L76.1222786,25.0297857 C76.1222786,22.7565714 75.9567071,22.6154286 74.1666357,22.4865 L74.1666357,22.0087857 L79.6630643,22.0087857 L79.6630643,22.4865 C78.0385643,22.6154286 77.8729929,22.7565714 77.8729929,25.0297857 L77.8729929,27.987 L85.0984214,27.987 Z" id="Fill-2" fill="#001489"></path>
                    <path d="M92.9072857,25.0301929 C92.9072857,22.7596929 92.7417143,22.6131214 91.0737857,22.4882643 L91.0737857,22.0091929 L100.197857,22.0091929 C100.218214,22.3634071 100.32,23.8834071 100.425857,25.05055 L99.9060714,25.1129786 C99.6970714,24.0734071 99.4663571,23.53055 99.1555714,23.1953357 C98.8230714,22.8438357 98.135,22.6959071 96.8647143,22.6959071 L95.2809286,22.6959071 C94.6973571,22.6959071 94.658,22.7366214 94.658,23.3419071 L94.658,28.09055 L96.7615714,28.09055 C98.5502857,28.09055 98.6140714,27.9656929 98.8230714,26.4226214 L99.3455714,26.4226214 L99.3455714,30.5483357 L98.8230714,30.5483357 C98.7199286,29.7761214 98.6561429,29.3594786 98.3860714,29.1314786 C98.116,28.9021214 97.6559286,28.8614071 96.7615714,28.8614071 L94.658,28.8614071 L94.658,32.54605 C94.658,33.73355 94.7828571,34.3591929 95.1764286,34.6116214 C95.5740714,34.8586214 96.3245714,34.8586214 97.3017143,34.8586214 C98.4892143,34.8586214 99.4663571,34.7527643 99.9250714,34.2546929 C100.282,33.8801214 100.6145,33.1716929 100.926643,32.21355 L101.446429,32.2773357 C101.341929,32.85955 100.883214,34.9848357 100.717643,35.5466929 L90.8661429,35.5466929 L90.8661429,35.0676214 C92.7417143,34.9414071 92.9072857,34.79755 92.9072857,32.5243357 L92.9072857,25.0301929 Z" id="Fill-4" fill="#001489"></path>
                    <path d="M106.131557,29.61055 L109.817557,29.61055 L107.985414,24.4886929 L107.9447,24.4886929 L106.131557,29.61055 Z M110.1107,35.0676214 L110.774343,34.9848357 C111.546557,34.90205 111.629343,34.6713357 111.4217,34.0253357 C111.275129,33.52455 110.6712,31.90005 110.088986,30.4017643 L105.862843,30.4017643 C105.651129,30.9432643 105.112343,32.5677643 104.820557,33.4444786 C104.424271,34.6496214 104.611557,34.9224071 105.547986,35.00655 L106.172271,35.0676214 L106.172271,35.5453357 L101.716771,35.5453357 L101.716771,35.0676214 C103.0712,34.9224071 103.236771,34.7961929 103.965557,32.9436929 L108.254129,21.8843357 L108.7332,21.69705 L110.213843,25.6558357 C111.192343,28.29955 112.108414,30.9432643 112.921343,33.06855 C113.5877,34.8192643 113.856414,34.9631214 115.149771,35.0676214 L115.149771,35.5453357 L110.1107,35.5453357 L110.1107,35.0676214 Z" id="Fill-6" fill="#001489"></path>
                    <path d="M119.835443,32.5474071 C119.835443,33.7973357 119.939943,34.3809071 120.333514,34.5871929 C120.7298,34.8179071 121.500657,34.8586214 122.290514,34.8586214 C123.3328,34.8586214 124.312657,34.7541214 124.770014,34.2533357 C125.102514,33.8801214 125.458086,33.17305 125.768871,32.2149071 L126.291371,32.2773357 C126.185514,32.85955 125.728157,34.9834786 125.561229,35.5453357 L116.1698,35.5453357 L116.1698,35.0662643 C117.919157,34.9414071 118.084729,34.7961929 118.084729,32.5243357 L118.084729,25.03155 C118.084729,22.7583357 117.919157,22.6144786 116.1698,22.4882643 L116.1698,22.0078357 L121.792443,22.0078357 L121.792443,22.4882643 C120.001014,22.6144786 119.835443,22.7583357 119.835443,25.03155 L119.835443,32.5474071 Z" id="Fill-8" fill="#001489"></path>
                    <path d="M125.612664,21.9276286 C125.557021,22.8925571 125.460664,24.0094857 125.390093,25.0870571 L125.912593,25.0870571 C126.159593,24.1709857 126.412021,23.5874143 126.642736,23.2929143 C126.952164,22.8979857 127.515379,22.6265571 129.370593,22.6265571 L130.346379,22.6265571 L130.346379,32.4753429 C130.346379,34.7499143 130.17945,34.8964857 128.22245,35.0227 L128.22245,35.5004143 L134.303807,35.5004143 L134.303807,35.0227 C132.262664,34.8964857 132.097093,34.7499143 132.097093,32.4753429 L132.097093,22.6265571 L133.492236,22.6265571 C134.781521,22.6265571 135.427521,22.7717714 135.783093,23.1680571 C136.095236,23.5005571 136.323236,24.0868429 136.532236,25.0870571 L137.052021,25.0246286 C136.966521,24.0244143 136.882379,22.8124857 136.843021,21.9276286 L125.612664,21.9276286 Z" id="Fill-10" fill="#001489"></path>
                    <path d="M150.385814,27.987 L150.385814,25.0297857 C150.385814,22.7565714 150.218886,22.6154286 148.552314,22.4865 L148.552314,22.0087857 L154.0501,22.0087857 L154.0501,22.4865 C152.3021,22.6154286 152.132457,22.7565714 152.132457,25.0297857 L152.132457,32.5252857 C152.132457,34.7971429 152.3021,34.9423571 154.009386,35.0672143 L154.009386,35.5449286 L148.385386,35.5449286 L148.385386,35.0672143 C150.218886,34.9423571 150.385814,34.7971429 150.385814,32.5252857 L150.385814,28.8175714 L143.159029,28.8175714 L143.159029,32.5252857 C143.159029,34.7971429 143.325957,34.9423571 145.031886,35.0672143 L145.031886,35.5449286 L139.5341,35.5449286 L139.5341,35.0672143 C141.242743,34.9423571 141.408314,34.7971429 141.408314,32.5252857 L141.408314,25.0297857 C141.408314,22.7565714 141.242743,22.6154286 139.451314,22.4865 L139.451314,22.0087857 L144.9491,22.0087857 L144.9491,22.4865 C143.325957,22.6154286 143.159029,22.7565714 143.159029,25.0297857 L143.159029,27.987 L150.385814,27.987 Z" id="Fill-12" fill="#001489"></path>
                    <path d="M162.806793,26.4218071 C162.806793,27.0040214 163.256007,27.5238071 163.94815,27.9757357 C164.505936,27.5970929 164.808579,27.1492357 164.808579,26.5168071 C164.808579,25.97395 164.505936,25.2818071 163.754079,25.2818071 C163.256007,25.2818071 162.806793,25.7052357 162.806793,26.4218071 L162.806793,26.4218071 Z M162.090221,30.5923071 C162.090221,31.7323071 163.025293,32.2168071 163.77715,32.2168071 C164.663364,32.2168071 165.314793,31.5748786 165.837293,30.8813786 C165.137007,30.1566643 164.408221,29.4645214 163.401221,28.70045 C162.467507,29.2826643 162.090221,29.87845 162.090221,30.5923071 L162.090221,30.5923071 Z M169.027936,27.7803071 L169.027936,28.0598786 C168.130864,28.1318071 168.007364,28.3136643 167.619221,28.8605929 C167.256864,29.3681643 166.942007,29.8635214 166.625793,30.3385214 C167.20665,30.9682357 168.276079,32.2168071 168.673721,32.9686643 L168.60315,33.0663786 C167.996507,32.9958071 167.317936,32.7162357 167.172721,32.5560929 C167.015293,32.38645 166.57965,31.7323071 166.080221,31.1758786 C165.137007,32.4963786 164.34715,32.9958071 163.459579,32.9958071 C161.847293,32.9958071 161.099507,31.8408786 161.099507,30.8813786 C161.099507,29.7196643 162.05765,29.1008071 163.085007,28.4928071 C162.346721,27.94995 161.970793,27.4518786 161.970793,26.8343786 C161.970793,25.7296643 162.89365,24.9058786 163.911507,24.9058786 C164.87915,24.9058786 165.692079,25.5966643 165.692079,26.5561643 C165.692079,26.9918071 165.389436,27.4165929 165.172293,27.5740214 C164.95515,27.7300929 164.636221,27.9363786 164.226364,28.1806643 C164.625364,28.4833071 165.498007,29.18495 166.362507,30.0603071 C166.567436,29.7563071 166.781864,29.35595 166.97865,28.9542357 C167.293507,28.3380929 167.317936,28.1535214 166.699079,28.0951643 L166.310936,28.0598786 L166.310936,27.7803071 L169.027936,27.7803071 Z" id="Fill-14" fill="#001489"></path>
                    <path d="M178.559693,22.4881286 L177.913693,22.5722714 C176.978621,22.6971286 176.853764,22.8844143 177.142836,23.8004857 L179.956193,32.6734857 L179.996907,32.6734857 L183.331407,22.2194143 L183.828121,22.2194143 L187.598264,32.6490571 L187.640336,32.6490571 C188.492621,30.0270571 189.703193,25.6326286 190.053336,24.1357 C190.346479,22.9251286 190.244693,22.6754143 189.304193,22.5722714 L188.702979,22.4881286 L188.702979,22.0077 L193.116407,22.0077 L193.116407,22.4881286 C191.742979,22.6550571 191.597764,22.7378429 190.912407,24.6337714 C190.72105,25.1535571 189.20105,29.9456286 187.45305,35.6727714 L186.889836,35.6727714 L183.142764,25.4860571 L183.099336,25.5267714 L179.703764,35.6727714 L179.122907,35.6727714 L175.519693,24.4885571 C174.957836,22.7568429 174.645693,22.6129857 173.458193,22.4881286 L173.458193,22.0077 L178.559693,22.0077 L178.559693,22.4881286 Z" id="Fill-16" fill="#001489"></path>
                    <path d="M196.052857,25.0301929 C196.052857,22.7596929 195.885929,22.6131214 194.219357,22.4882643 L194.219357,22.0091929 L203.340714,22.0091929 C203.361071,22.3634071 203.465571,23.8834071 203.571429,25.05055 L203.050286,25.1129786 C202.842643,24.0734071 202.611929,23.53055 202.301143,23.1953357 C201.965929,22.8438357 201.280571,22.6959071 200.010286,22.6959071 L198.429214,22.6959071 C197.844286,22.6959071 197.803571,22.7366214 197.803571,23.3419071 L197.803571,28.09055 L199.904429,28.09055 C201.697214,28.09055 201.759643,27.9656929 201.965929,26.4226214 L202.487071,26.4226214 L202.487071,30.5483357 L201.965929,30.5483357 C201.862786,29.7761214 201.800357,29.3594786 201.530286,29.1314786 C201.258857,28.9021214 200.8015,28.8614071 199.904429,28.8614071 L197.803571,28.8614071 L197.803571,32.54605 C197.803571,33.73355 197.928429,34.3591929 198.322,34.6116214 C198.718286,34.8586214 199.468786,34.8586214 200.447286,34.8586214 C201.634786,34.8586214 202.611929,34.7527643 203.070643,34.2546929 C203.427571,33.8801214 203.758714,33.1716929 204.072214,32.21355 L204.590643,32.2773357 C204.4875,32.85955 204.028786,34.9848357 203.861857,35.5466929 L194.011714,35.5466929 L194.011714,35.0676214 C195.885929,34.9414071 196.052857,34.79755 196.052857,32.5243357 L196.052857,25.0301929 Z" id="Fill-18" fill="#001489"></path>
                    <path d="M210.069564,32.5474071 C210.069564,33.7973357 210.172707,34.3809071 210.567636,34.5871929 C210.963921,34.8179071 211.734779,34.8586214 212.525993,34.8586214 C213.564207,34.8586214 214.546779,34.7541214 215.005493,34.2533357 C215.336636,33.8801214 215.693564,33.17305 216.002993,32.2149071 L216.524136,32.2773357 C216.420993,32.85955 215.960921,34.9834786 215.793993,35.5453357 L206.401207,35.5453357 L206.401207,35.0662643 C208.151921,34.9414071 208.317493,34.7961929 208.317493,32.5243357 L208.317493,25.03155 C208.317493,22.7583357 208.151921,22.6144786 206.401207,22.4882643 L206.401207,22.0078357 L212.02385,22.0078357 L212.02385,22.4882643 C210.235136,22.6144786 210.069564,22.7583357 210.069564,25.03155 L210.069564,32.5474071 Z" id="Fill-20" fill="#001489"></path>
                    <path d="M219.292571,25.0301929 C219.292571,22.7596929 219.127,22.6131214 217.460429,22.4882643 L217.460429,22.0091929 L226.499,22.0091929 C226.518,22.3634071 226.621143,23.8834071 226.728357,25.05055 L226.208571,25.1129786 C225.999571,24.0734071 225.771571,23.53055 225.459429,23.1953357 C225.124214,22.8438357 224.438857,22.6959071 223.167214,22.6959071 L221.668929,22.6959071 C221.085357,22.6959071 221.043286,22.7366214 221.043286,23.3419071 L221.043286,28.3212643 L223.313786,28.3212643 C225.101143,28.3212643 225.167643,28.19505 225.373929,26.6533357 L225.892357,26.6533357 L225.892357,30.7559786 L225.373929,30.7559786 C225.167643,29.2156214 225.101143,29.0921214 223.313786,29.0921214 L221.043286,29.0921214 L221.043286,32.5243357 C221.043286,34.79755 221.210214,34.9414071 223.209286,35.0676214 L223.209286,35.5466929 L217.460429,35.5466929 L217.460429,35.0676214 C219.127,34.9414071 219.292571,34.79755 219.292571,32.5243357 L219.292571,25.0301929 Z" id="Fill-22" fill="#001489"></path>
                    <path d="M231.392857,29.61055 L235.078857,29.61055 L233.246714,24.4886929 L233.206,24.4886929 L231.392857,29.61055 Z M235.370643,35.0676214 L236.035643,34.9848357 C236.807857,34.90205 236.890643,34.6713357 236.681643,34.0253357 C236.536429,33.52455 235.933857,31.90005 235.347571,30.4017643 L231.122786,30.4017643 C230.912429,30.9432643 230.370929,32.5677643 230.0805,33.4444786 C229.686929,34.6496214 229.872857,34.9224071 230.809286,35.00655 L231.433571,35.0676214 L231.433571,35.5453357 L226.975357,35.5453357 L226.975357,35.0676214 C228.3325,34.9224071 228.498071,34.7961929 229.226857,32.9436929 L233.515429,21.8843357 L233.9945,21.69705 L235.475143,25.6558357 C236.453643,28.29955 237.371071,30.9432643 238.182643,33.06855 C238.849,34.8192643 239.119071,34.9631214 240.408357,35.0676214 L240.408357,35.5453357 L235.370643,35.5453357 L235.370643,35.0676214 Z" id="Fill-24" fill="#001489"></path>
                    <path d="M244.678064,28.9862643 L245.887279,28.9862643 C246.740921,28.9862643 247.407279,28.8817643 247.97185,28.42305 C248.863493,27.7146214 249.175636,26.6967643 249.175636,25.6748357 C249.175636,23.4857643 247.593207,22.6144786 246.031136,22.6144786 C245.325421,22.6144786 245.032279,22.6551929 244.869421,22.7176214 C244.74185,22.7583357 244.678064,22.8614786 244.678064,23.2808357 L244.678064,28.9862643 Z M244.678064,32.5243357 C244.678064,34.7948357 244.844993,34.9414071 246.554993,35.0662643 L246.554993,35.5453357 L241.015136,35.5453357 L241.015136,35.0662643 C242.763136,34.9414071 242.92735,34.7948357 242.92735,32.5243357 L242.92735,25.03155 C242.92735,22.7583357 242.763136,22.6144786 241.096564,22.4882643 L241.096564,22.0078357 L246.389421,22.0078357 C247.720779,22.0078357 248.906921,22.1991929 249.677779,22.7176214 C250.509707,23.2387643 251.051207,24.1751929 251.051207,25.3844071 C251.051207,27.11205 249.989921,28.3389071 248.302993,29.0269786 C248.677564,29.6539786 249.531207,31.0911929 250.15685,32.0086214 C250.90735,33.1106214 251.341636,33.6738357 251.90485,34.2954071 C252.34185,34.8179071 252.716421,35.1504071 253.466921,35.3376929 L253.426207,35.7326214 L253.133064,35.7326214 C250.743136,35.6729071 250.011636,34.9414071 249.220421,33.7973357 C248.573064,32.85955 247.699064,31.32055 247.115493,30.3406929 C246.782993,29.7978357 246.450493,29.5901929 245.803136,29.5901929 L244.678064,29.5901929 L244.678064,32.5243357 Z" id="Fill-26" fill="#001489"></path>
                    <g id="Group-30" transform="translate(253.785714, 21.714286)">
                        <mask id="mask-2" fill="white">
                            <use xlink:href="#path-1"></use>
                        </mask>
                        <g id="Clip-29"></g>
                        <path d="M2.82570714,3.31590714 C2.82570714,1.04540714 2.65877857,0.898835714 0.99085,0.773978571 L0.99085,0.294907143 L10.1135643,0.294907143 C10.1352786,0.649121429 10.2384214,2.16912143 10.3456357,3.33626429 L9.82313571,3.39869286 C9.61549286,2.35912143 9.38613571,1.81626429 9.07399286,1.48105 C8.73877857,1.12955 8.05206429,0.981621429 6.77906429,0.981621429 L5.20206429,0.981621429 C4.61713571,0.981621429 4.57235,1.02233571 4.57235,1.62762143 L4.57235,6.37626429 L6.67999286,6.37626429 C8.46870714,6.37626429 8.53520714,6.25140714 8.73877857,4.70833571 L9.25992143,4.70833571 L9.25992143,8.83405 L8.73877857,8.83405 C8.63699286,8.06183571 8.57185,7.64519286 8.30313571,7.41719286 C8.03170714,7.18783571 7.57435,7.14712143 6.67999286,7.14712143 L4.57235,7.14712143 L4.57235,10.8317643 C4.57235,12.0192643 4.70127857,12.6449071 5.09620714,12.8973357 C5.49249286,13.1443357 6.24027857,13.1443357 7.22149286,13.1443357 C8.40627857,13.1443357 9.38613571,13.0384786 9.84349286,12.5404071 C10.1977071,12.1658357 10.5315643,11.4574071 10.8437071,10.4992643 L11.3675643,10.56305 C11.26035,11.1452643 10.80435,13.27055 10.6347071,13.8324071 L0.783207143,13.8324071 L0.783207143,13.3533357 C2.65877857,13.2271214 2.82570714,13.0832643 2.82570714,10.81005 L2.82570714,3.31590714 Z" id="Fill-28" fill="#001489" mask="url(#mask-2)"></path>
                    </g>
                    <g id="Group-33">
                        <mask id="mask-4" fill="white">
                            <use xlink:href="#path-3"></use>
                        </mask>
                        <g id="Clip-32"></g>
                        <path d="M64.7876929,19.9462 C64.5339071,19.8064143 51.9504786,15.6291286 39.8922643,8.25441429 C27.83405,0.8797 27.7946929,0.425057143 27.0998357,0.416914286 C26.5529071,0.441342857 17.4166214,7.23384286 13.2393357,10.0648429 C9.06340714,12.8958429 5.41947857,15.4255571 2.42426429,16.6429143 C0.514764286,17.4205571 0.0954071429,17.3133429 0.0289071429,17.8236286 C-0.0375928571,18.3298429 -0.159735714,20.1307714 1.81897857,19.6761286 C2.60340714,19.4956286 6.77255,18.5917714 7.42669286,18.3990571 C8.37669286,18.0665571 8.74447857,18.2674143 8.88562143,18.4262 C9.48955,19.1020571 9.95233571,22.4026286 9.97812143,23.4435571 C9.97812143,23.4435571 10.0934786,28.4962 10.0242643,30.2523429 C9.97133571,31.6352714 9.56012143,36.1532 9.56012143,36.1532 C9.56012143,36.1532 9.44747857,36.9077714 9.85462143,37.1371286 C10.2617643,37.3651286 11.4723357,37.6569143 11.8672643,37.4859143 C12.2649071,37.3162714 12.46305,36.9932714 12.4806929,36.4314143 C12.50105,35.8641286 12.63405,23.8547714 12.7019071,23.3729857 C12.7711214,22.8884857 12.6774786,22.2519857 13.3234786,22.5546286 C13.97355,22.8586286 14.5096214,23.2128429 14.8746929,23.5548429 C15.2356929,23.8995571 15.4338357,24.9703429 15.4881214,25.6204143 C15.5437643,26.2718429 16.0092643,35.6198429 15.7473357,38.7480571 C15.7229071,39.0466286 15.8979786,39.4917714 16.3349786,39.6899143 C17.3094071,40.1486286 18.1196214,40.3494857 18.5199786,40.4390571 C18.94205,40.5313429 19.4102643,40.8122714 19.4482643,39.1307714 C19.4821929,37.4492714 17.7151929,12.8795571 17.8549786,11.8671286 C17.9336929,11.3174857 18.2268357,10.7054143 18.6204071,10.4054857 C19.0126214,10.1096286 25.6843357,5.06784286 25.9639071,4.83984286 C26.2407643,4.61591429 26.7741214,4.45034286 27.53955,4.88734286 C28.6781929,5.5822 32.1456929,7.38312857 33.1499786,7.94905714 C34.1529071,8.51362857 35.7516214,9.53555714 36.2116929,9.80155714 C36.6717643,10.0689143 37.8918357,11.1207 37.8538357,13.1129857 C37.7629071,15.7553429 36.8563357,36.4341286 36.8563357,36.4341286 C36.8563357,36.4341286 36.5944071,39.9179143 36.56455,40.6100571 C36.5346929,41.3008429 36.4668357,41.7704143 37.4833357,41.9441286 C38.0791214,42.0499857 38.7916214,42.1449857 39.2489786,41.9889143 C39.8461214,41.7568429 39.8664786,41.4976286 39.9384071,40.8421286 C40.0116929,40.1798429 41.2507643,26.6342 41.3172643,25.9922714 C41.3796929,25.3503429 41.2982643,24.6799143 42.1966929,24.9092714 C42.9268357,25.1304857 43.3719786,24.8970571 43.3258357,26.1795571 C43.2769786,27.4620571 43.2647643,36.1898429 43.3556929,36.6689143 C43.4479786,37.1466286 43.6298357,37.9432714 44.2799071,38.1658429 C44.9259071,38.3884143 46.30205,38.8349143 46.30205,38.8349143 C46.30205,38.8349143 47.0308357,39.1375571 46.9996214,37.9364857 C46.96705,36.7367714 46.0672643,17.5427 46.0672643,17.5427 C46.0672643,17.5427 46.0374071,16.2615571 46.9236214,16.5574143 C47.2534071,16.6687 49.4899786,17.3689857 52.4146214,18.2416286 C52.6439786,18.3027 52.8991214,18.5103429 52.8746929,18.8034857 C52.7878357,19.7507714 51.8324071,30.1478429 51.5528357,33.2489143 C51.44155,34.4784857 51.3451929,35.4637714 51.7496214,35.5913429 C51.9613357,35.6619143 52.8149786,35.8369857 53.1121929,35.8967 C53.5926214,35.9903429 53.6387643,35.3131286 53.7066214,34.7390571 C53.95905,32.6042714 54.5249786,29.0214143 54.9728357,27.7348429 C55.1492643,27.2218429 55.2537643,27.0671286 55.4641214,27.1092 C55.6717643,27.1526286 56.22955,27.4199857 56.4263357,27.5339857 C56.6841929,27.6873429 56.6841929,27.9533429 56.7696929,28.4256286 C57.01805,29.8289143 57.0153357,32.0804143 57.03705,32.9869857 C57.04655,33.3222 57.0723357,33.7157714 57.2609786,33.8759143 C57.5744786,34.1446286 58.3222643,34.2382714 58.6629071,34.3047714 C58.9926929,34.3672 59.2424071,34.0347 59.2478357,33.4714857 C59.2749786,30.2971286 59.0456214,23.2779857 60.1218357,20.8310571 C60.1747643,20.6342714 60.4461929,20.5935571 60.56155,20.6234143 C62.7004071,21.2069857 64.1213357,21.6724857 64.2312643,21.6819857 C64.9139071,21.7308429 64.9627643,20.7224857 64.9817643,20.5094143 C65.0048357,20.2963429 64.9329071,20.0249143 64.7876929,19.9462" id="Fill-31" fill="#001489" mask="url(#mask-4)"></path>
                    </g>
                    <path d="M31.2991071,17.8693643 C30.7671071,17.77165 28.9200357,17.5273643 28.9200357,17.5273643 L28.7680357,17.5219357 C28.3188214,17.48665 28.3011786,17.9032929 28.3188214,18.5397929 C28.3364643,19.1722214 28.3866786,19.7652929 28.3391786,20.5157929 C28.2930357,21.2703643 28.47625,21.4970071 28.6906786,21.5594357 C28.9363214,21.6367929 29.3801071,21.6680071 30.1821786,21.6680071 C30.7779643,21.6680071 30.98425,21.4807214 31.05075,21.3205786 C31.22175,20.9867214 31.6560357,19.3187929 31.7428929,18.4990786 L31.7428929,18.49365 C31.7958214,18.2167929 31.6560357,17.9372214 31.2991071,17.8693643" id="Fill-34" fill="#001489"></path>
                    <path d="M30.2773143,27.3733 C30.2718857,27.2280857 30.2759571,27.0163714 30.2759571,27.0163714 C28.4207429,24.0917286 26.1421,26.5943 26.1421,26.5943 C26.1421,26.5943 26.0579571,27.0543714 26.0294571,27.3733 C25.9792429,28.0342286 25.5693857,36.9764429 25.5178143,39.2442286 C25.4703143,41.5038714 26.0036714,41.5988714 26.7161714,41.6273714 C27.4259571,41.6572286 28.9812429,41.7305143 29.8511714,41.6775857 C30.3899571,41.6436571 30.5786,41.5391571 30.4795286,40.5633714 C30.3546714,39.2374429 30.2773143,27.3733 30.2773143,27.3733" id="Fill-36" fill="#001489"></path>
                    <path d="M45.2601714,4.90498571 C45.2764571,5.48855714 44.9548143,6.28384286 44.8720286,6.49827143 C44.7811,6.71541429 44.6399571,7.10762857 43.6994571,6.73305714 C42.7589571,6.3612 41.7872429,5.90927143 41.6610286,5.83055714 C41.5388857,5.75184286 40.6988143,5.12891429 40.7544571,4.4042 C40.8209571,3.51527143 41.6271,3.17191429 41.7736714,2.88962857 C41.9202429,2.61141429 42.3979571,2.64805714 42.8634571,2.87334286 C43.3276,3.09591429 44.4472429,3.81384286 44.6304571,3.9197 C44.8191,4.02827143 45.2452429,4.32548571 45.2601714,4.90498571" id="Fill-38" fill="#001489"></path>
                    <path d="M12.6199357,2.76585714 C12.6199357,2.76585714 10.0264357,4.10264286 9.09000714,4.47314286 C8.74529286,4.60885714 7.67179286,5.14357143 7.73557857,5.74614286 C7.80207857,6.38264286 7.94865,7.02864286 8.45486429,7.70721429 C8.75886429,8.11435714 9.68850714,7.94064286 10.02915,7.70042857 C10.6005071,7.28785714 13.3487214,5.871 13.6255786,5.624 C13.9037929,5.377 14.0937929,5.10557143 13.9187214,4.35914286 C13.7477214,3.62221429 13.18315,2.44964286 12.6199357,2.76585714" id="Fill-40" fill="#001489"></path>
                    <path d="M56.0736143,13.6680571 C56.7236857,14.1959857 57.8786143,15.0577714 58.4567571,14.8107714 C59.3144714,14.4389143 59.5207571,13.0234143 59.0783286,12.5823429 C58.4513286,11.9567 56.9788286,11.1234143 56.0939714,12.0082714 C55.2077571,12.8931286 56.0315429,13.6287 56.0315429,13.6287 L56.0736143,13.6680571 Z" id="Fill-42" fill="#001489"></path>
                    <path d="M31.2951714,17.8562 C30.7591,17.7584857 28.9038857,17.5142 28.9038857,17.5142 L28.7573143,17.5087714 C28.3040286,17.4734857 28.2863857,17.8914857 28.3040286,18.5293429 C28.3203143,19.1631286 28.3705286,19.7616286 28.3243857,20.5162 C28.2782429,21.2707714 28.4614571,21.4987714 28.6786,21.5612 C28.9228857,21.6399143 29.3666714,21.6697714 30.1741714,21.6697714 C30.7713143,21.6697714 30.9776,21.4824857 31.0454571,21.3196286 C31.2178143,20.9844143 31.6521,19.3124143 31.7403143,18.4872714 L31.7403143,18.4818429 C31.7932429,18.2063429 31.6521,17.9240571 31.2951714,17.8562" id="Fill-44" fill="#001489"></path>
                    <path d="M30.2680857,27.3946071 C30.2626571,27.2493929 30.2667286,27.0376786 30.2667286,27.0376786 C28.4060857,24.1008214 26.1179429,26.61425 26.1179429,26.61425 C26.1179429,26.61425 26.0338,27.0756786 26.0053,27.3946071 C25.9564429,28.0596071 25.5465857,37.03575 25.4909429,39.3076071 C25.4420857,41.5781071 25.9768,41.6744643 26.6960857,41.70025 C27.4099429,41.7328214 28.9693,41.8074643 29.8419429,41.7518214 C30.3820857,41.7206071 30.5707286,41.61475 30.4730143,40.6335357 C30.3468,39.3021786 30.2680857,27.3946071 30.2680857,27.3946071" id="Fill-46" fill="#001489"></path>
                    <mask id="mask-6" fill="white">
                        <use xlink:href="#path-5"></use>
                    </mask>
                    <g id="Clip-49"></g>
                    <polygon id="Fill-48" fill="#001489" mask="url(#mask-6)" points="76.4302143 15.4062857 77.1359286 15.4062857 77.1359286 9.02635714 76.4302143 9.02635714"></polygon>
                    <path d="M84.6226071,14.8065643 L85.5780357,14.8065643 C87.0451071,14.8065643 87.8064643,13.92985 87.8064643,12.2171357 C87.8064643,10.3524214 86.9216071,9.62770714 85.6133214,9.62770714 L84.6226071,9.62770714 L84.6226071,14.8065643 Z M83.9155357,9.02513571 L85.6309643,9.02513571 C87.3640357,9.02513571 88.5135357,10.1230643 88.5135357,12.2171357 C88.5135357,14.0899929 87.5051786,15.4050643 85.5970357,15.4050643 L83.9155357,15.4050643 L83.9155357,9.02513571 Z" id="Fill-50" fill="#001489" mask="url(#mask-6)"></path>
                    <path d="M95.6096286,12.8079 L97.5462714,12.8079 L96.6274857,9.5209 L96.5297714,9.5209 L95.6096286,12.8079 Z M94.0896286,15.4068286 L96.0520571,9.02554286 L97.1038429,9.02554286 L99.0662714,15.4068286 L98.3225571,15.4068286 L97.7240571,13.4077571 L95.4332,13.4077571 L94.8333429,15.4068286 L94.0896286,15.4068286 Z" id="Fill-51" fill="#001489" mask="url(#mask-6)"></path>
                    <polygon id="Fill-52" fill="#001489" mask="url(#mask-6)" points="109.830586 9.02540714 109.830586 15.4066929 109.123514 15.4066929 109.123514 12.36805 106.067229 12.36805 106.067229 15.4066929 105.360157 15.4066929 105.360157 9.02540714 106.067229 9.02540714 106.067229 11.7654786 109.123514 11.7654786 109.123514 9.02540714"></polygon>
                    <path d="M118.854771,14.8953214 C119.975771,14.8953214 120.640771,14.0253929 120.640771,12.2149643 C120.640771,10.4031786 119.975771,9.53732143 118.854771,9.53732143 C117.732414,9.53732143 117.070129,10.4031786 117.070129,12.2149643 C117.070129,14.0253929 117.732414,14.8953214 118.854771,14.8953214 M118.854771,8.93610714 C120.4182,8.93610714 121.346486,10.0869643 121.346486,12.2149643 C121.346486,14.3470357 120.4182,15.4938214 118.854771,15.4938214 C117.289986,15.4938214 116.3617,14.3470357 116.3617,12.2149643 C116.3617,10.0869643 117.289986,8.93610714 118.854771,8.93610714" id="Fill-53" fill="#001489" mask="url(#mask-6)"></path>
                    <path d="M135.461179,14.8065643 L136.417964,14.8065643 C137.883679,14.8065643 138.643679,13.92985 138.643679,12.2171357 C138.643679,10.3524214 137.760179,9.62770714 136.45325,9.62770714 L135.461179,9.62770714 L135.461179,14.8065643 Z M134.754107,9.02513571 L136.469536,9.02513571 C138.202607,9.02513571 139.352107,10.1230643 139.352107,12.2171357 C139.352107,14.0899929 138.34375,15.4050643 136.432893,15.4050643 L134.754107,15.4050643 L134.754107,9.02513571 Z" id="Fill-54" fill="#001489" mask="url(#mask-6)"></path>
                    <polygon id="Fill-55" fill="#001489" mask="url(#mask-6)" points="149.850286 9.02540714 149.850286 9.62662143 146.732929 9.62662143 146.732929 11.7654786 148.9505 11.7654786 148.9505 12.36805 146.732929 12.36805 146.732929 14.8068357 150.026714 14.8068357 150.026714 15.4066929 146.0245 15.4066929 146.0245 9.02540714"></polygon>
                    <path d="M157.365057,11.9596857 L158.564771,11.9596857 C159.742771,11.9596857 160.133629,11.5525429 160.133629,10.7939 C160.133629,10.0352571 159.680343,9.6254 158.724914,9.6254 L157.365057,9.6254 L157.365057,11.9596857 Z M156.656629,15.4068286 L156.656629,9.02418571 L158.8837,9.02418571 C160.244914,9.02418571 160.837986,9.80318571 160.837986,10.8088286 C160.837986,11.8714714 160.103771,12.5609 158.496914,12.5609 L157.365057,12.5609 L157.365057,15.4068286 L156.656629,15.4068286 Z" id="Fill-56" fill="#001489" mask="url(#mask-6)"></path>
                    <path d="M167.7225,12.8079 L169.6605,12.8079 L168.740357,9.5209 L168.642643,9.5209 L167.7225,12.8079 Z M166.203857,15.4068286 L168.166286,9.02554286 L169.216714,9.02554286 L171.179143,15.4068286 L170.436786,15.4068286 L169.835571,13.4077571 L167.546071,13.4077571 L166.946214,15.4068286 L166.203857,15.4068286 Z" id="Fill-57" fill="#001489" mask="url(#mask-6)"></path>
                    <path d="M178.285414,11.9067571 L179.5652,11.9067571 C180.539629,11.9067571 181.053986,11.5430429 181.053986,10.7396143 C181.053986,9.8819 180.469057,9.6254 179.557057,9.6254 L178.285414,9.6254 L178.285414,11.9067571 Z M177.578343,15.4068286 L177.578343,9.0269 L179.628986,9.0269 C181.007843,9.0269 181.7597,9.6444 181.7597,10.7056857 C181.7597,11.6054714 181.2372,12.1184714 180.4867,12.3668286 L181.839771,15.4068286 L181.070271,15.4068286 L179.779629,12.5066143 L178.285414,12.5066143 L178.285414,15.4068286 L177.578343,15.4068286 Z" id="Fill-58" fill="#001489" mask="url(#mask-6)"></path>
                    <polygon id="Fill-59" fill="#001489" mask="url(#mask-6)" points="190.37905 9.62580714 190.37905 15.4085929 189.670621 15.4085929 189.670621 9.62580714 187.759764 9.62580714 187.759764 9.02595 192.285836 9.02595 192.285836 9.62580714"></polygon>
                    <polygon id="Fill-60" fill="#001489" mask="url(#mask-6)" points="203.55555 15.4069643 203.55555 9.57396429 203.52705 9.57396429 201.743764 15.4069643 201.195479 15.4069643 199.398621 9.57396429 199.37555 9.57396429 199.37555 15.4069643 198.737693 15.4069643 198.737693 9.02567857 199.835621 9.02567857 201.460121 14.18825 201.479121 14.18825 203.077836 9.02567857 204.194764 9.02567857 204.194764 15.4069643"></polygon>
                    <polygon id="Fill-61" fill="#001489" mask="url(#mask-6)" points="215.230507 9.02540714 215.230507 9.62662143 212.11315 9.62662143 212.11315 11.7654786 214.330721 11.7654786 214.330721 12.36805 212.11315 12.36805 212.11315 14.8068357 215.411007 14.8068357 215.411007 15.4066929 211.404721 15.4066929 211.404721 9.02540714"></polygon>
                    <polygon id="Fill-62" fill="#001489" mask="url(#mask-6)" points="222.106336 15.4069643 222.106336 9.02567857 223.12555 9.02567857 225.907693 13.9398929 225.942979 13.9398929 225.942979 9.02567857 226.580836 9.02567857 226.580836 15.4069643 225.99455 15.4069643 222.761836 9.71510714 222.744193 9.71510714 222.744193 15.4069643"></polygon>
                    <polygon id="Fill-63" fill="#001489" mask="url(#mask-6)" points="235.470936 9.62580714 235.470936 15.4085929 234.763864 15.4085929 234.763864 9.62580714 232.854364 9.62580714 232.854364 9.02595 237.379079 9.02595 237.379079 9.62580714"></polygon>
                    <path d="M251.523357,14.8953214 C252.643,14.8953214 253.306643,14.0253929 253.306643,12.2149643 C253.306643,10.4031786 252.643,9.53732143 251.523357,9.53732143 C250.401,9.53732143 249.736,10.4031786 249.736,12.2149643 C249.736,14.0253929 250.401,14.8953214 251.523357,14.8953214 M251.523357,8.93610714 C253.086786,8.93610714 254.015071,10.0869643 254.015071,12.2149643 C254.015071,14.3470357 253.086786,15.4938214 251.523357,15.4938214 C249.957214,15.4938214 249.028929,14.3470357 249.028929,12.2149643 C249.028929,10.0869643 249.957214,8.93610714 251.523357,8.93610714" id="Fill-64" fill="#001489" mask="url(#mask-6)"></path>
                    <polygon id="Fill-65" fill="#001489" mask="url(#mask-6)" points="263.737643 9.02540714 263.737643 9.62662143 260.659643 9.62662143 260.659643 11.7654786 262.936929 11.7654786 262.936929 12.36805 260.659643 12.36805 260.659643 15.4066929 259.953929 15.4066929 259.953929 9.02540714"></polygon>
                </g>
            </g>
        </g>
    </g>
</svg>