<?xml version="1.0" encoding="UTF-8"?><svg id="Layer_1" data-name="Layer 1" xmlns="http://www.w3.org/2000/svg" width="2.89in" height="1.79in" viewBox="0 0 208 129"><defs><style>.cls-1{fill:#fff;}</style></defs><title>Artboard 1</title><polygon class="cls-1" points="173.23 127.69 172.87 127.56 172.24 128 171.94 128.47 171.7 128.52 170.91 128.73 171.36 129.18 171.97 128.87 173.84 128.22 173.67 127.77 173.23 127.69"/><path class="cls-1" d="M207.5,17.64l-.54-.88-.49-.53-.9.05.15.37-.57-.46-.05-1.09-.22-.54h-1.36l-2.06-6.81L201,7.49l-1.41-.56-.4,0-.44.44-1,.71v.24l-.08.09-.5-.12-.24-.39V7.46l-.44,0h-.39l-.52,1.06-.67,2-.42,1.16,0,1.13,0,.27-.15.58-.22.32,0,1.46.39.49-.29.83-.61,1.11-.3,1.07v.41l-.22-.06-.5,0,1.13,3.53L195.38,28l-.74-.22-.06-.53L193,22.13l-1-3.27h-.4l-.11.26-.3-.31-.1.14-.34.51v1.1l.05.66L186,22.46h0l-.35.1h0l-1.52.42-1,.33-.78,0-1.28.3-.74.3-.58.44-.48.57-.64.86-.67,1.05-.32.64-.13.17-1.39,1.31.07.73.24.31.47.2h.27v.12l-.28.53.1.44.31.39,0,.45-.3.19h-.55l-.43.52-.38.7-.4.38-1.23.12-.61.27-.39.28-.3,0-.53-.32-1.47,0-.76.12-.93.29-1,.35-.77.47.51,1.61.42,0,.25.6,0,.14-.22.19-.5.68-.07.3-.43.4-.45.3-.19.34-.29.25-.12.09v0l-.19.17-.08.07h0l-1.13,1.08-.33.13-.78.56h0L162,43.45l-.93.54-.77.85-.86.85-.73.19L158,46l-1.21.58-.42,0-.78-.7-1.16.17-.6-.33-.63-.33-.95.13v-.08l.45-.81.51-.45-.05-1.16.26-.29.34-.1,0-.86.28-.56.06,0,0,.18.09,0,.28,0,.52-.26L155,38.9,154.27,37l-.54-2.12-.59-.78-.68-.46L152,34l-.95.43-.44,1.17-.59.82-.19.11-.26-.11c-.23-.13-.46-.3-.49-.32s.09-.81.11-1.09l.77-.29.2-.85.13-.54.58-.38-.1-2.46-.42-.56-.23-.11-.16-.4.07-.06.45.09.06-.6-.58-.53-.33-.67H149l-1-.31-1.33-.81H146l-.12.12-.1-.05L145,26l-.76.47-.73.57.09,1,.33.1.37.09-.36.11-.65.08-.4.53-.07.53.07.35L143,31l-.67.4,0-.77.31-.59.17-.63-.31-.32-.61.26-.22,1-.61.27-.44.51-.05.29.14.18-.11.44-.54.11v.43l.18.48-.26,1.38-.37,1,.16,1.12.08.21-.16.49-.08.22-.06.72.81,1.36L141,41l.33,1-.19,1.08-.21,1.34-.57,1.23,0,.54-.72.69-.64.37-.42.41-.2.05-.32-.2-.7-.2-.21-.67-.32-.91-.35-.38-.32-.53L136,43.71h0l0-.89-.27-1-.16-1.46-.23-.5.2-.66.18-.63.35-.69-.15-.78-.15-.75.08-.36.48-.64v-.71l-.15-.25.14-.58-.12-.88.63-1.3.68-1.61,0-.57-.13-.39-.16.09-.23.15-1,1.45-.61.9-.48.47-.16.46-.46.22-.21.35-.13,0,0-.22.3-.57.45-1,.44-.42.14-.34h0l.82-1.81.22-.9.41-.93h0l.25.36h.07l.22,0,.94-.5.32.32.18.07.4-.37.24-.64.46-.16,1.65-.16.45-.58,1.07,0,1.37.3h.47l.67-.33.57,0,.42-.14.82.1.27.08.34-.08,0,.1.91.05.39-.37v-.07c0-.41-.13-.47-.16-.48s-.2-.23-.33-.39l0-.07-1,.11-.14.47.27.14.06.2-.24-.17-.26-.13-.7-.66V22.2l-.51-.18-.07.07-.19.22-1.41.37-.37.11-.62-.16-.05,0V21.24h-.13l-.41,0-.59.29-1,.43-1.56.08-.83.29-.9.8-.3.21-.34,0-.24.15-.26-.07-.45-.36-.09.06-.25.2-.83,0-.56-.55-.37-.75-.38-.29-.78-.22h-.46l-.35-.35-.93.77-.15.16h0l0-.43.58-.8.09-.48.5-.17.33-.7.87-.23.12-.38-.37-.37-1.2.14-1,.58-.53.54-.24.36-.47.23-.47.73,0,.22-1,.47-.49.41-1.45.27-.19.19v.2l-.71.46-.68.21-.17.14-.12.09-.14,0-.17-.29-.4.09-.31.05-.33.18,0,0,.1-.31.42-.68.38-.37-.65-.49-.58.23-.64.44-1.68.73-.61.15-.6-.08-.11-.1.87-.57.35,0,1-1.16.47-.24.51-.88.53-.79.67-.57,1.09-.46,2.13-.94,1-.45v0l.55.39.57-.25.78-.46,1.28-1.29-.26-.26-.65.17-1.2.88-.55.22-.51.57.19-.72-1.29.11-.15.23-.41-.7-2.21.11-.13.15h-.12l-.08-.21-.23-.51-.11,0-.67.15-.7.72-.31.17h-.65l-.5-.19V16l-.49-.06-.09.09-.44-.22-.12-.76-.55.18-.09.18-.42-.08-1.2-.55-1-.61-.58,0-.35-.26-.65.2-.3.33,0,.19h-.86v-.48l-1.47-.07-.08-.34h-1.17l-.28-.26-.33-1.4-.2-1.34-.54-.22-.59-.12-.25.07-.08,1.86h-6.82l-6.52-.13L90.94,12l-6.06-.29-5.14-.48h0l-7.16-.66-6.71-.81-6.69-.93L51.77,7.61l-4.22-.78L39.92,5.21l-1.05,5.13L39.63,12l-.29,1.09.44,1.11.73.31L41.57,17l.6.7.13.32.77.26.09.3-1.63,4.1,0,.66.62.79h.07l.28,0,1.15-.73.09-.15.16.06,0,1.15.67,3,.69.58.19.13.38.48-.1.77.21.88.36.29.58-.58h.5l.79.39.58-.22h.89l.92.38.73-.13.1-.69.52-.11.21.17.11.81.33.19-1.92,12-10.47-2v0L29.28,38.33l2-7.72.24-.95L32,28.31l-.21-.4h-.59L31,27.63l.09-.29.08-.67,1-1.23.45-.27.29-.31.32-.79.92-1.29.85-1,.06-.87-.76-.55-.39-1L37.08,4.67l-3.62-.76-5.25-1.3-4.6-1.3-2-.44L19.43.24,18.37-.12l-.06,0L18,.17,17.9.42l.58,1.16.23.53-.39.82v.58l.12.28-.17.42.14.81.19.25,0,.13h-.1l-.12-.35-.3-.61-.34-.28.05-.3.55-.12-.1-.56-.12-.44-.67.41-.34.3V4l-.34,0L16,3.77l-.7-.35-.67-.14-1-.47-.71-.43-.62-.58-.64-.71L11,.94l-.56,2.35.42.72V5.79l-.15.73.37,1.71.43.42-.83.13,0,1.07.55.24-.28.72-.66.08-.09.83.44.64-.42.15-.54,1.55-.73,2.28-.75,1.5L7,21.05l-1.47,3.1L3.24,27.77l-.19,2,.09,2.71-.36,1.15,0,1.65L1.61,37.91l-.75.66,0,.2L.4,39,.05,40l-.2.8.65,1,.36,1,.26.76-.06,1.42-.43.76L.49,47l-.21.94.41.91.62,1L1.83,51l.29.87-.05.68-.1.19v.53l1.28,1.44-.09.47L3,55.66l-.15.5.05,2L3.4,59l.48.64.61.11.19.46-.21.74-.4.34H3.7l-.21,1.06.13.73.72,1,.37,1.23.34,1.08.31.72,1.09,1.88.12.74.36.21v.42l-.19.47-.54,2.15.64.72,1,.11,1,.41,1,.49h.61l.6.63.59,1.11.32.58.93.5,1.06.18.27.37.13.63-.35.16.14.42.84.21.71,0,.63-.34.78.84.2.54.57.91.07.72v2.19l.13.5,2.39.35L25,85.8l3,.29-.5.44L27.4,87l.17.28,4.32,2.45,2.79,1.74,3.36,2,3.9,2.31,2.83.56,5.55.6h0l3.83.49.29-2.3,6.75.65h0l.16,0,.57.61.35,1.06,1.08.52.3.74,1.62,1.81.36.41,1.07.42.31.54.32.18.11.61.73,1.42V106l.55,1.11,1.75,1.81,1.13.45.37.4v.18l1,.57.41.13.44.28.68.25.63-.64,1-1.46.2-.8.46-.69.81-.34,1-.38.71.5,1.69.15,1.49.23.54.44,0,.28.61.72L85,110.37l.06.36.38.37.19,1,1.21,2.75,0,.53,1,.59.83,1.54.84,1,.68.25.33.46-.3,1,0,.06.2.27.21.11,0,.58-.21.21.19.66.73.44.3,1.46.55,1,1.77.79L95,126l1,.73.82.14.21-.11,1.21.24,1.38.94.82-.53.28-.42,0-.06.4-.11,0-.45-.12-1.22-.58-1.63-.21-1.38.07-1.15.45-1.48,1-1.5,1.2-1.67,0,0,1.34-.82.38-.32,1.43-.77,1.32-.57,1.23-.75.64-.49,1.28-1.21.3-.19.49-.33.63-.5L112,110l2.24-1,1.41-.39v0l.9-.3,2.73,0,2.39.82,1.56.26.8-.32.7.25.87.26.28-.75-1-.31-.54.1-.5-.29a.42.42,0,0,1,.06-.12l.64-.21.42.35.09,0,.31-.2.68.13.28.45.09.63,1.1.08.3.3-.09.22-.45.28.54.53,2,.84.93-.34.22-.55.57-.16.33-.27.15.09.15.54-.61.21.38.38.93-.38.47-.74.53-.31-.69-.11.12-.27,0-.22.43-.12.15-.17h0a1.18,1.18,0,0,0,.14.73l.09.07h.07c.12,0,.62.09.9.14l.86.39.27.4h.69l.34.29.09-.13.54-.79v-.47h-.14l-.2,0-.85-.66-1.27-.16-.65-.46.17-.42.54.08.09-.38-.21-.12h.46l.5-.85-.32-.46-.1-.77-.52.06-.52.58-.11.46-.51-.11-.14-.26.36-.39.4-.72,0,0,.29-.22.53-.86.39.15,1.5-.45.43.06.4.21h1.3v0h.47l.27.06.35-.75.29-.87.32.09.66,1.25V104l-.87.62,1,.12,1.4-.64h0l.19,0,1.32-.46,1.36-.11.93-.15,1.69.39,1.79.85.41.35.6.21.33.36.09.8.86-.35.94,0,.83-.45.8-.76.73,0,.19-.42-.21-.24,0-.27.77-.16h.52l.68.33.88.27.62.89.55.19.25.75.76.34.45.64.44.14,1.1.28.29.65.66.74v2.09l-.34,1.11.08.64.3,1.1.47,1.06.36-.22.39-1.2-.61-.22.11-.06.93.2,0,.17-.71,1.21-.56.64.89.92.57.66.66,1.21.64.84.51,1.19.56.1.34-.43.25.14.56.85.17.86.82,1.15.25-.4.72,0,.77.47.74,1.11.18.74.08.71.34.28.35.13.65-.28.29-.32.87,0,.74-.37.25-.28,0,.06-.71,1.15-1,.92-.77.43-.73.45.51.44.71-.54,1.22-1,.87-.91.56-1.46.24-.45,0-1-.24.16-.22.19-.21.6-.08-.49.15-.51-.06-.33.53-.28.07-.9-.14-.35-.11-2.7-.31-1.74-1-1.85-.8-1.29-.61-1.24-.63-.6-.63-1.59.13-.21.32-.37-.44-.77-.9-.83-1.08-1.2L171,105l-1.19-2.08-.84-2.17-.5-1.58.73,0-.2-1.57.52-2.29.34-1-.13-.5.8-1.49-.15-.38.41-.26L172,90.4l-.19-.65.57-.06.78-.75.43-.24.5-.75.65-.66.45-.77.57-.15.27-.65.39-.19.11-1.49.56-1.36,1.22-1.23,1.14-.28,1.18-.12.13-.65.42-1.44.76-1,1.45-1.2,1.15-.55.54-.15.32.12h.37l.75-1.19.64-1.15-.37.13-.34.14-.37.37-.1-.26h-.87l.41-1.32-.2-.32.66.06.9-.39.32-.74.13-.42.61-.31.09-1.08h.25l.05.13.32.48.14,1.38,0,.38-.3.13-.73.61-.8.77.6.1.3-.33.61-.53.86-.39,0-.89-.11-1.07L188.58,69l-.26.09-.09-.26-.53-.52-.8-1.47-.41-1h0l-.07-.13-.07-.15h0l-.82-1.38-1.36.4-.16-.15.5-.28v-.1l-.16-.65-.36-.32,0-.4-.52-.35v-.14l.58,0,.09-.54-.28-.17.11-.43-.32-.27.1-1-.27-.37-.7-.09-.11-.51.26-.56,0-.07-.31-.4v-.47L182,56.9l-.48-1.18.3-1.27-.08-.57-.2-.2a1.09,1.09,0,0,0,.28-.51c0-.09.06-.32.05-.36l.45-.31.18-.15-.18.21-.3.94.1.35.38.07.1,1-.48.22.09,1.1.34-.11.19-.32.13.15-.29.24-.09.89.66.87.74.08-.32.08.31.68.06.47.36.59.13-.13c.24-.25.24-.35.24-.38a6.37,6.37,0,0,0-.17-.75l-.19-.6.14-.07.73.92.21.08,0,.31-.17.7-.37,1-.1,1.3.4,1.28.17-.15.54-.5.42-1.21-.1-.74.06-1,.7-.92.16-.7h0l.5-1-.09-1h0l0-.12V56h0L187,54.3l-.3.15L186,54l-.41-1.09-.24-.42.8.37.82.13,0,.16-.19.22.1.82h.38l.56-.67.16-1.06.64-.94.71-1.52.28-1.31,0-.05-.13-.19-.05-2.21-.45-.94-.14.1-.19.16-.44,0,.6-.54v0l.13.06,1-.27,1.33-.45.63-.24,2.54-1.91.92-1-1.25-.48-.36.4-.63.6-1.74.88-.47,0-.44-.17-.36.21-.5.58-.27.26-.16,0,0-.07.46-.42-.19-.39,1.74-1.59.36-.39.15.13.68-.37,1.21-.26,1.69-.69.8-.28.58-.48.22-.34.28,0,.58-.31h0l.69-.34-.13-.58.1-.22.52-.26.13.46-.09.35-.58.35v.59L199,38l-.23.27.45.36.57-.27.77-.33-.18-.15-.51-.38h-.44l0,0,.47-.56.87-.44,1.08-.37-.1-.7-.24-.71-.5-.6-.48-.2-.54,0-.23.24.37.5.37-.2.35.24.16.55-.3.31-.45.22-.74-.11-.87-1.33-.56-.64-.56,0-.14.11-.32-.43,0-.24.59-1.26-.78-1.18-1,.48-.35.59L195,32l-3.76,1-.09-.06.09-.33v-.66l2.75-.74.52-.14.37-.6.83-.39.21-.28.22-.66.31.09.11.69.8.38.29-1.64,0-.94.35-.32-.22-.75.55-.65.33.3.4-.15,1.28-.74.07-.64.63-.1.42-.74,0-.37-.1-.61.22-.35-.12-.38-.19-.21.21-.12.39.7.3-.07,0,.13v.32l-.24-.18-.52.52.53.86.61-.32,0-.1-.16-.58.51,0,.11-.7.19-.25-.38-.34.11-.19.33-.2L203,22l.53.55h.13c.1,0,.37,0,.37-.2a2.56,2.56,0,0,0,0-.37l.27-.24-.1-.22h.44l1.14-1.3.73-.67.5-.17.52-1.19Zm-3.56,3.46-.36.15.14-.21.2,0A.19.19,0,0,1,203.94,21.1Zm-19,51.33v0l.06,0Zm-84.28,46.12-.5-.43.13-.27.91-.07.9-1.27.18,0-.57.65-.81,1.26-.44.92Zm52.73-18.82v0l.53.79.22.22-.22,0-.27-.26-.52-.77ZM165.56,101l-.07-.49h.34l0,.57Zm-65.22,25.36-.23-1.42-.41-1.61-.18-.48.19-1,.13-.44-.1.53.14,1.65.62,1.61.13,1.62Z"/><polygon class="cls-1" points="201.59 37.33 201.47 37.77 200.98 37.95 200.69 38.32 201.93 38.28 202.36 38.12 202.03 37.38 201.59 37.33"/><path class="cls-1" d="M16.66,2.72l.12-.11L17,2.39l0-.18.07,0c-.26.42-.26.48-.26.52l.05.15.11,0,.13,0h.1l.38-.11.22-.61-.12-.15.34-.38-.28-.52h-.68l-.24.25-.06-.2-.74.06.16.79Z"/><polygon class="cls-1" points="6.98 75.82 7.22 76.35 7.39 76.71 8.35 76.73 8.41 76.25 8.03 75.79 6.98 75.82"/><polygon class="cls-1" points="13.43 80.02 13 80.08 13 80.2 13.03 80.57 13.44 81.11 13.69 81.38 14.17 81.56 14.38 81.03 14.09 80.51 13.43 80.02"/><polygon class="cls-1" points="8.69 75.63 8.21 75.88 8.49 76.38 8.9 76.78 10.04 76.85 10.5 76.51 9.57 76.15 8.69 75.63"/><path class="cls-1" d="M12.89,82.31l-.33,0V83a1.63,1.63,0,0,0,.21.54l.35.32.61-.1-.38-.62Z"/></svg>